<?xml version="1.0" encoding="utf-8"?>
<!-- Generator: Adobe Illustrator 23.0.1, SVG Export Plug-In . SVG Version: 6.00 Build 0)  -->
<svg version="1.1" xmlns="http://www.w3.org/2000/svg" xmlns:xlink="http://www.w3.org/1999/xlink" x="0px" y="0px"
	 viewBox="0 0 170 90" style="enable-background:new 0 0 170 90;" xml:space="preserve">
<style type="text/css">
	.st0{fill:none;stroke:#AFB1B8;}
	.st1{fill:#AFB1B8;}
</style>
<g id="Слой_1">
	<path class="st0" d="M4,0.5h162c1.9,0,3.5,1.6,3.5,3.5v82c0,1.9-1.6,3.5-3.5,3.5H4c-1.9,0-3.5-1.6-3.5-3.5V4C0.5,2.1,2.1,0.5,4,0.5
		z"/>
	<path class="st1" d="M57.4,36.8L57.4,36.8c-2.3,0-4.1,1.8-4.1,4v0c0,2.2,1.8,4,4.1,4h0c2.3,0,4.1-1.8,4.1-4v0
		C61.5,38.6,59.7,36.8,57.4,36.8z"/>
	<path class="st1" d="M87.6,35.6c0-3.1-1.3-6-3.5-8.2c-2.2-2.2-5.2-3.4-8.4-3.4l0,0c-3.1,0-6.2,1.2-8.4,3.4
		c-2.2,2.2-3.5,5.1-3.5,8.2v16.9C63.9,52.4,87.6,49.9,87.6,35.6L87.6,35.6z"/>
	<path class="st1" d="M45,58c0,2.1,0.9,4.2,2.4,5.7s3.6,2.4,5.8,2.4c2.2,0,4.3-0.9,5.8-2.4c1.5-1.5,2.4-3.5,2.4-5.7V46.2
		C61.5,46.2,45,48,45,58z M53.2,60.1c-0.4,0-0.8-0.1-1.2-0.4c-0.4-0.2-0.6-0.6-0.8-0.9c-0.2-0.4-0.2-0.8-0.1-1.2
		c0.1-0.4,0.3-0.8,0.6-1.1c0.3-0.3,0.7-0.5,1.1-0.6c0.4-0.1,0.9,0,1.2,0.1c0.4,0.2,0.7,0.4,1,0.8c0.2,0.3,0.4,0.8,0.4,1.2
		c0,0.3-0.1,0.6-0.2,0.8c-0.1,0.3-0.3,0.5-0.5,0.7c-0.2,0.2-0.4,0.4-0.7,0.5S53.5,60.1,53.2,60.1L53.2,60.1z"/>
	<path class="st1" d="M70.1,58.8h-1.7v1.7h-0.9v-4.3h2.8V57h-1.9v1.1h1.7V58.8z M74.3,58.5c0,0.4-0.1,0.8-0.2,1.1
		c-0.1,0.3-0.4,0.6-0.6,0.7c-0.3,0.2-0.6,0.3-0.9,0.3c-0.4,0-0.7-0.1-0.9-0.3c-0.3-0.2-0.5-0.4-0.6-0.7c-0.2-0.3-0.2-0.7-0.2-1.1
		v-0.2c0-0.4,0.1-0.8,0.2-1.1c0.2-0.3,0.4-0.6,0.6-0.7c0.3-0.2,0.6-0.3,0.9-0.3s0.7,0.1,0.9,0.3c0.3,0.2,0.5,0.4,0.6,0.7
		c0.2,0.3,0.2,0.7,0.2,1.1V58.5z M73.4,58.3c0-0.4-0.1-0.8-0.2-1c-0.2-0.2-0.4-0.3-0.7-0.3c-0.3,0-0.5,0.1-0.7,0.3
		c-0.2,0.2-0.2,0.6-0.2,1v0.2c0,0.4,0.1,0.8,0.2,1c0.2,0.2,0.4,0.4,0.7,0.4c0.3,0,0.5-0.1,0.7-0.3c0.2-0.2,0.2-0.6,0.2-1V58.3z
		 M77.2,59.4c0-0.2-0.1-0.3-0.2-0.4c-0.1-0.1-0.3-0.2-0.6-0.3c-0.3-0.1-0.5-0.2-0.7-0.3c-0.5-0.3-0.7-0.6-0.7-1.1
		c0-0.2,0.1-0.4,0.2-0.6c0.1-0.2,0.3-0.3,0.6-0.4c0.2-0.1,0.5-0.2,0.8-0.2c0.3,0,0.6,0.1,0.8,0.2c0.2,0.1,0.4,0.3,0.6,0.5
		C78,57,78,57.3,78,57.5h-0.9c0-0.2-0.1-0.3-0.2-0.5c-0.1-0.1-0.3-0.2-0.5-0.2c-0.2,0-0.4,0-0.5,0.1c-0.1,0.1-0.2,0.2-0.2,0.4
		c0,0.1,0.1,0.3,0.2,0.3c0.1,0.1,0.3,0.2,0.6,0.3c0.5,0.2,0.9,0.3,1.1,0.6c0.2,0.2,0.3,0.5,0.3,0.8c0,0.4-0.1,0.7-0.4,0.9
		c-0.3,0.2-0.7,0.3-1.1,0.3c-0.3,0-0.6-0.1-0.9-0.2c-0.3-0.1-0.5-0.3-0.6-0.5c-0.1-0.2-0.2-0.5-0.2-0.7h0.9c0,0.5,0.3,0.7,0.8,0.7
		c0.2,0,0.4,0,0.5-0.1C77.1,59.7,77.2,59.6,77.2,59.4z M81.9,57h-1.3v3.6h-0.9V57h-1.3v-0.7h3.5V57z M84.9,58.7h-1.7v1.1h2v0.7h-2.9
		v-4.3h2.9V57h-2v1h1.7V58.7z M87.3,59h-0.7v1.6h-0.9v-4.3h1.6c0.5,0,0.9,0.1,1.2,0.3c0.3,0.2,0.4,0.5,0.4,1c0,0.3-0.1,0.5-0.2,0.7
		c-0.1,0.2-0.3,0.3-0.6,0.5l0.9,1.7v0h-0.9L87.3,59z M86.6,58.3h0.7c0.2,0,0.4-0.1,0.5-0.2C88,58,88,57.8,88,57.6
		c0-0.2-0.1-0.4-0.2-0.5C87.7,57,87.6,57,87.3,57h-0.7V58.3z M91.9,59v1.5h-0.9v-4.3h1.7c0.3,0,0.6,0.1,0.8,0.2
		c0.2,0.1,0.4,0.3,0.6,0.5c0.1,0.2,0.2,0.5,0.2,0.7c0,0.4-0.1,0.7-0.4,1c-0.3,0.2-0.7,0.4-1.2,0.4H91.9z M91.9,58.3h0.8
		c0.2,0,0.4-0.1,0.5-0.2c0.1-0.1,0.2-0.3,0.2-0.5c0-0.2-0.1-0.4-0.2-0.5C93.1,57,93,57,92.7,57h-0.8V58.3z M97.5,58.7h-1.7v1.1h2
		v0.7h-2.9v-4.3h2.9V57h-2v1h1.7V58.7z M101.6,57h-1.3v3.6h-0.9V57h-1.3v-0.7h3.5V57z M104.6,58.7H103v1.1h2v0.7h-2.9v-4.3h2.9V57
		h-2v1h1.7V58.7z M107,59h-0.7v1.6h-0.9v-4.3h1.6c0.5,0,0.9,0.1,1.2,0.3c0.3,0.2,0.4,0.5,0.4,1c0,0.3-0.1,0.5-0.2,0.7
		c-0.1,0.2-0.3,0.3-0.6,0.5l0.9,1.7v0h-0.9L107,59z M106.3,58.3h0.7c0.2,0,0.4-0.1,0.5-0.2c0.1-0.1,0.2-0.3,0.2-0.5
		c0-0.2-0.1-0.4-0.2-0.5c-0.1-0.1-0.3-0.2-0.5-0.2h-0.7V58.3z M111.5,59.4c0-0.2-0.1-0.3-0.2-0.4c-0.1-0.1-0.3-0.2-0.6-0.3
		c-0.3-0.1-0.5-0.2-0.7-0.3c-0.5-0.3-0.7-0.6-0.7-1.1c0-0.2,0.1-0.4,0.2-0.6c0.1-0.2,0.3-0.3,0.6-0.4c0.2-0.1,0.5-0.2,0.8-0.2
		c0.3,0,0.6,0.1,0.8,0.2c0.2,0.1,0.4,0.3,0.6,0.5c0.1,0.2,0.2,0.4,0.2,0.7h-0.9c0-0.2-0.1-0.3-0.2-0.5c-0.1-0.1-0.3-0.2-0.5-0.2
		c-0.2,0-0.4,0-0.5,0.1c-0.1,0.1-0.2,0.2-0.2,0.4c0,0.1,0.1,0.3,0.2,0.3c0.1,0.1,0.3,0.2,0.6,0.3c0.5,0.2,0.9,0.3,1.1,0.6
		c0.2,0.2,0.3,0.5,0.3,0.8c0,0.4-0.1,0.7-0.4,0.9c-0.3,0.2-0.7,0.3-1.1,0.3c-0.3,0-0.6-0.1-0.9-0.2c-0.3-0.1-0.5-0.3-0.6-0.5
		c-0.1-0.2-0.2-0.5-0.2-0.7h0.9c0,0.5,0.3,0.7,0.8,0.7c0.2,0,0.4,0,0.5-0.1C111.4,59.7,111.5,59.6,111.5,59.4z"/>
</g>
<g id="Слой_2">
</g>
</svg>
