<svg width="1200" height="182" viewBox="0 0 1200 182" fill="none" xmlns="http://www.w3.org/2000/svg">
<path d="M429.31 33H424.019V11.6777H413.771V33H408.498V7.40625H429.31V33ZM433.906 23.3145C433.906 21.4277 434.269 19.7461 434.996 18.2695C435.722 16.793 436.765 15.6504 438.125 14.8418C439.496 14.0332 441.084 13.6289 442.888 13.6289C445.455 13.6289 447.546 14.4141 449.164 15.9844C450.793 17.5547 451.701 19.6875 451.888 22.3828L451.923 23.6836C451.923 26.6016 451.109 28.9453 449.48 30.7148C447.851 32.4727 445.666 33.3516 442.923 33.3516C440.181 33.3516 437.99 32.4727 436.349 30.7148C434.72 28.957 433.906 26.5664 433.906 23.543V23.3145ZM438.986 23.6836C438.986 25.4883 439.326 26.8711 440.005 27.832C440.685 28.7812 441.658 29.2559 442.923 29.2559C444.154 29.2559 445.115 28.7871 445.806 27.8496C446.498 26.9004 446.843 25.3887 446.843 23.3145C446.843 21.5449 446.498 20.1738 445.806 19.2012C445.115 18.2285 444.142 17.7422 442.888 17.7422C441.646 17.7422 440.685 18.2285 440.005 19.2012C439.326 20.1621 438.986 21.6562 438.986 23.6836ZM464.042 29.2559C464.98 29.2559 465.742 28.998 466.328 28.4824C466.914 27.9668 467.218 27.2812 467.242 26.4258H472.005C471.994 27.7148 471.642 28.8984 470.951 29.9766C470.259 31.043 469.31 31.875 468.103 32.4727C466.908 33.0586 465.584 33.3516 464.13 33.3516C461.412 33.3516 459.267 32.4902 457.697 30.7676C456.126 29.0332 455.341 26.6426 455.341 23.5957V23.2617C455.341 20.332 456.121 17.9941 457.679 16.248C459.238 14.502 461.376 13.6289 464.095 13.6289C466.474 13.6289 468.378 14.3086 469.808 15.668C471.25 17.0156 471.982 18.8145 472.005 21.0645H467.242C467.218 20.0801 466.914 19.2832 466.328 18.6738C465.742 18.0527 464.968 17.7422 464.007 17.7422C462.824 17.7422 461.927 18.1758 461.318 19.043C460.72 19.8984 460.421 21.293 460.421 23.2266V23.7539C460.421 25.7109 460.72 27.1172 461.318 27.9727C461.916 28.8281 462.824 29.2559 464.042 29.2559ZM491.771 18.0586H485.671V33H480.574V18.0586H474.58V13.9805H491.771V18.0586ZM494.099 23.3145C494.099 21.4277 494.462 19.7461 495.189 18.2695C495.915 16.793 496.958 15.6504 498.318 14.8418C499.689 14.0332 501.277 13.6289 503.081 13.6289C505.648 13.6289 507.74 14.4141 509.357 15.9844C510.986 17.5547 511.894 19.6875 512.081 22.3828L512.117 23.6836C512.117 26.6016 511.302 28.9453 509.673 30.7148C508.044 32.4727 505.859 33.3516 503.117 33.3516C500.374 33.3516 498.183 32.4727 496.542 30.7148C494.913 28.957 494.099 26.5664 494.099 23.543V23.3145ZM499.179 23.6836C499.179 25.4883 499.519 26.8711 500.199 27.832C500.878 28.7812 501.851 29.2559 503.117 29.2559C504.347 29.2559 505.308 28.7871 505.999 27.8496C506.691 26.9004 507.036 25.3887 507.036 23.3145C507.036 21.5449 506.691 20.1738 505.999 19.2012C505.308 18.2285 504.335 17.7422 503.081 17.7422C501.839 17.7422 500.878 18.2285 500.199 19.2012C499.519 20.1621 499.179 21.6562 499.179 23.6836ZM532.181 13.9805V33H527.118V26.4258H523.902L520.245 33H515.095L519.243 25.5645C518.107 25.0371 517.228 24.3223 516.607 23.4199C515.997 22.5176 515.693 21.4922 515.693 20.3438C515.693 18.5039 516.402 16.998 517.82 15.8262C519.249 14.6426 521.159 14.0273 523.55 13.9805H532.181ZM523.638 22.875H527.118V18.0586H523.814C522.911 18.0586 522.179 18.2988 521.616 18.7793C521.054 19.248 520.773 19.8223 520.773 20.502C520.773 21.1816 521.042 21.7441 521.581 22.1895C522.12 22.6348 522.806 22.8633 523.638 22.875ZM554.038 33H548.941V25.6875H542.63V33H537.55V13.9805H542.63V21.6094H548.941V13.9805H554.038V33ZM575.544 33H570.446V25.6875H564.136V33H559.056V13.9805H564.136V21.6094H570.446V13.9805H575.544V33ZM585.993 19.5527H589.632C591.272 19.5527 592.714 19.8281 593.956 20.3789C595.198 20.9297 596.147 21.7207 596.804 22.752C597.472 23.7715 597.806 24.9609 597.806 26.3203C597.806 28.3242 597.062 29.9414 595.573 31.1719C594.097 32.3906 592.081 33 589.526 33H580.896V13.9805H585.993V19.5527ZM605.892 33H600.812V13.9805H605.892V33ZM585.993 23.6309V28.9395H589.597C590.605 28.9395 591.378 28.7051 591.917 28.2363C592.456 27.7676 592.726 27.1289 592.726 26.3203C592.726 25.5 592.462 24.8496 591.935 24.3691C591.407 23.877 590.628 23.6309 589.597 23.6309H585.993ZM620.208 33.3516C617.419 33.3516 615.145 32.4961 613.388 30.7852C611.642 29.0742 610.769 26.7949 610.769 23.9473V23.4551C610.769 21.5449 611.138 19.8398 611.876 18.3398C612.614 16.8281 613.657 15.668 615.005 14.8594C616.364 14.0391 617.911 13.6289 619.645 13.6289C622.247 13.6289 624.292 14.4492 625.78 16.0898C627.28 17.7305 628.03 20.0566 628.03 23.0684V25.1426H615.919C616.083 26.3848 616.575 27.3809 617.395 28.1309C618.227 28.8809 619.276 29.2559 620.542 29.2559C622.499 29.2559 624.028 28.5469 625.13 27.1289L627.626 29.9238C626.864 31.002 625.833 31.8457 624.532 32.4551C623.231 33.0527 621.79 33.3516 620.208 33.3516ZM619.628 17.7422C618.62 17.7422 617.8 18.082 617.167 18.7617C616.546 19.4414 616.147 20.4141 615.972 21.6797H623.038V21.2754C623.015 20.1504 622.71 19.2832 622.124 18.6738C621.538 18.0527 620.706 17.7422 619.628 17.7422ZM649.509 25.9863H647.47V33H642.389V13.9805H647.47V21.1348H649.28L653.429 13.9805H659.845L653.622 23.0332L660.425 33H653.657L649.509 25.9863ZM679.962 13.9805V33H674.882V18.0938H670.399L670.083 23.9648C669.884 27.0938 669.268 29.373 668.237 30.8027C667.206 32.2324 665.671 32.9648 663.632 33H661.909L661.856 28.8691L662.489 28.8164C663.403 28.7461 664.071 28.207 664.493 27.1992C664.915 26.1914 665.178 24.4746 665.284 22.0488L665.635 13.9805H679.962ZM696.422 13.9805H701.503V33H696.422V21.2578L690.059 33H684.962V13.9805H690.059V25.7051L696.422 13.9805ZM715.221 33.3516C712.432 33.3516 710.159 32.4961 708.401 30.7852C706.655 29.0742 705.782 26.7949 705.782 23.9473V23.4551C705.782 21.5449 706.151 19.8398 706.889 18.3398C707.628 16.8281 708.67 15.668 710.018 14.8594C711.378 14.0391 712.924 13.6289 714.659 13.6289C717.26 13.6289 719.305 14.4492 720.794 16.0898C722.294 17.7305 723.044 20.0566 723.044 23.0684V25.1426H710.932C711.096 26.3848 711.588 27.3809 712.409 28.1309C713.241 28.8809 714.29 29.2559 715.555 29.2559C717.512 29.2559 719.042 28.5469 720.143 27.1289L722.639 29.9238C721.878 31.002 720.846 31.8457 719.545 32.4551C718.245 33.0527 716.803 33.3516 715.221 33.3516ZM714.641 17.7422C713.633 17.7422 712.813 18.082 712.18 18.7617C711.559 19.4414 711.161 20.4141 710.985 21.6797H718.051V21.2754C718.028 20.1504 717.723 19.2832 717.137 18.6738C716.551 18.0527 715.719 17.7422 714.641 17.7422ZM743.512 33H738.415V25.6875H732.104V33H727.024V13.9805H732.104V21.6094H738.415V13.9805H743.512V33ZM764.315 18.0586H758.215V33H753.118V18.0586H747.123V13.9805H764.315V18.0586ZM773.393 19.5527H777.032C778.672 19.5527 780.114 19.8281 781.356 20.3789C782.598 20.9297 783.547 21.7207 784.203 22.752C784.871 23.7715 785.205 24.9609 785.205 26.3203C785.205 28.3242 784.461 29.9414 782.973 31.1719C781.496 32.3906 779.481 33 776.926 33H768.295V13.9805H773.393V19.5527ZM793.291 33H788.211V13.9805H793.291V33ZM773.393 23.6309V28.9395H776.996C778.004 28.9395 778.778 28.7051 779.317 28.2363C779.856 27.7676 780.125 27.1289 780.125 26.3203C780.125 25.5 779.862 24.8496 779.334 24.3691C778.807 23.877 778.028 23.6309 776.996 23.6309H773.393Z" fill="#212121"/>
<rect x="0.5" y="92.5" width="174" height="89" rx="3.5" stroke="#AFB1B8"/>
<path d="M71 113L78.3076 119.702H98.6924V138.399L106 145.102V113H71Z" fill="#AFB1B8"/>
<path d="M65 119.42V150.605H99V138.209L78.5231 119.428L65 119.42ZM92.5231 146.043H70.3801V125.07H71.9453V144.623H92.5231V146.043Z" fill="#AFB1B8"/>
<path d="M74.791 156.486L75.6089 154.802H76.2925L75.1011 157.048V158.356H74.481V157.048L73.2871 154.802H73.9731L74.791 156.486ZM78.3018 157.529H76.9248L76.6367 158.356H75.9946L77.3374 154.802H77.8916L79.2368 158.356H78.5923L78.3018 157.529ZM77.0981 157.031H78.1284L77.6133 155.556L77.0981 157.031ZM80.7358 157.397C80.7358 157.233 80.7806 157.082 80.8701 156.945C80.9596 156.807 81.1362 156.643 81.3999 156.455C81.2616 156.28 81.1647 156.132 81.1094 156.01C81.0557 155.888 81.0288 155.77 81.0288 155.656C81.0288 155.378 81.1134 155.158 81.2827 154.997C81.452 154.834 81.6799 154.753 81.9663 154.753C82.2251 154.753 82.4367 154.829 82.6011 154.982C82.7671 155.134 82.8501 155.322 82.8501 155.546C82.8501 155.694 82.8127 155.831 82.7378 155.957C82.6629 156.08 82.54 156.204 82.3691 156.328L82.1274 156.503L82.8135 157.314C82.9128 157.119 82.9624 156.901 82.9624 156.662H83.4775C83.4775 157.1 83.375 157.459 83.1699 157.739L83.6924 158.356H83.0039L82.8037 158.12C82.5498 158.31 82.2471 158.405 81.8955 158.405C81.5439 158.405 81.2624 158.312 81.0508 158.127C80.8408 157.94 80.7358 157.696 80.7358 157.397ZM81.9126 157.932C82.1128 157.932 82.3 157.865 82.4741 157.731L81.6978 156.816L81.6221 156.87C81.4268 157.018 81.3291 157.187 81.3291 157.377C81.3291 157.542 81.382 157.675 81.4878 157.778C81.5936 157.88 81.7352 157.932 81.9126 157.932ZM81.5854 155.642C81.5854 155.778 81.6693 155.95 81.8369 156.157L82.1079 155.971L82.1836 155.91C82.2845 155.821 82.335 155.706 82.335 155.566C82.335 155.473 82.3 155.394 82.23 155.329C82.16 155.262 82.0713 155.229 81.9639 155.229C81.8483 155.229 81.7563 155.268 81.688 155.346C81.6196 155.424 81.5854 155.523 81.5854 155.642ZM88.043 157.199C88.0072 157.578 87.8672 157.875 87.623 158.088C87.3789 158.299 87.0542 158.405 86.6489 158.405C86.3657 158.405 86.1159 158.339 85.8994 158.205C85.6846 158.07 85.5186 157.879 85.4014 157.631C85.2842 157.384 85.2231 157.097 85.2183 156.77V156.438C85.2183 156.102 85.2777 155.807 85.3965 155.551C85.5153 155.296 85.6854 155.099 85.9067 154.96C86.1297 154.822 86.3869 154.753 86.6782 154.753C87.0705 154.753 87.3862 154.86 87.6255 155.073C87.8647 155.286 88.0039 155.587 88.043 155.976H87.4277C87.3984 155.721 87.3236 155.537 87.2031 155.424C87.0843 155.31 86.9093 155.253 86.6782 155.253C86.4097 155.253 86.203 155.352 86.0581 155.549C85.9149 155.744 85.8416 156.031 85.8384 156.411V156.726C85.8384 157.11 85.9067 157.403 86.0435 157.604C86.1818 157.806 86.3836 157.907 86.6489 157.907C86.8914 157.907 87.0737 157.853 87.1958 157.744C87.3179 157.635 87.3952 157.453 87.4277 157.199H88.043ZM91.4341 156.672C91.4341 157.02 91.3739 157.326 91.2534 157.59C91.133 157.852 90.9604 158.054 90.7358 158.195C90.5129 158.335 90.2557 158.405 89.9644 158.405C89.6763 158.405 89.4191 158.335 89.1929 158.195C88.9683 158.054 88.7941 157.853 88.6704 157.592C88.5483 157.332 88.4865 157.032 88.4849 156.691V156.491C88.4849 156.145 88.5459 155.839 88.668 155.573C88.7917 155.308 88.965 155.105 89.188 154.965C89.4126 154.824 89.6698 154.753 89.9595 154.753C90.2492 154.753 90.5055 154.823 90.7285 154.963C90.9531 155.101 91.1265 155.301 91.2485 155.563C91.3706 155.824 91.4325 156.127 91.4341 156.474V156.672ZM90.8164 156.486C90.8164 156.092 90.7415 155.791 90.5918 155.581C90.4437 155.371 90.2329 155.266 89.9595 155.266C89.6925 155.266 89.4834 155.371 89.332 155.581C89.1823 155.789 89.1058 156.084 89.1025 156.467V156.672C89.1025 157.062 89.1782 157.364 89.3296 157.578C89.4826 157.791 89.6942 157.897 89.9644 157.897C90.2378 157.897 90.4478 157.793 90.5942 157.585C90.7424 157.377 90.8164 157.072 90.8164 156.672V156.486Z" fill="#AFB1B8"/>
<rect x="205.5" y="92.5" width="174" height="89" rx="3.5" stroke="#AFB1B8"/>
<path d="M289.977 113.935H290.114C290.366 113.935 290.64 113.96 290.91 113.983C292.103 114.067 293.287 114.246 294.452 114.517V111.654C293.253 111.353 292.03 111.158 290.797 111.071C290.329 111.036 289.83 111.013 289.319 111H288.892C286.417 111.009 283.953 111.327 281.555 111.946C278.825 112.627 276.205 113.693 273.771 115.112V143.509C276.114 142.236 278.607 141.264 281.191 140.617C283.232 140.097 285.317 139.776 287.419 139.661H287.503C287.854 139.643 288.206 139.633 288.568 139.631V136.722C285.837 136.757 283.119 137.118 280.473 137.797C279.494 138.051 278.548 138.326 277.66 138.631L276.648 138.975V116.833L277.08 116.625C280.382 115.06 283.952 114.149 287.596 113.942C287.627 113.94 287.657 113.94 287.688 113.942C288.09 113.922 288.494 113.912 288.892 113.912H289.327H289.347C289.557 113.917 289.767 113.922 289.977 113.935Z" fill="#AFB1B8"/>
<path d="M297.111 116.933C296.445 116.933 295.788 116.91 295.153 116.861C294.394 116.805 293.615 116.714 292.876 116.589C292.426 116.513 291.983 116.421 291.553 116.322V144.393C293.374 144.844 295.243 145.065 297.118 145.05C299.593 145.04 302.057 144.723 304.455 144.106C307.185 143.424 309.807 142.358 312.241 140.94V113.05C309.899 114.322 307.407 115.294 304.824 115.943C302.303 116.591 299.713 116.923 297.111 116.933ZM308.335 117.418L309.347 117.078V139.226L308.914 139.435C307.255 140.224 305.522 140.847 303.741 141.294C301.578 141.853 299.354 142.141 297.121 142.151C296.453 142.151 295.79 142.123 295.148 142.067L294.455 142.006V139.318V119.229L295.262 119.282C295.848 119.32 296.456 119.338 297.116 119.338C299.951 119.328 302.775 118.966 305.522 118.26C306.466 118.011 307.404 117.731 308.335 117.418Z" fill="#AFB1B8"/>
<path d="M275.737 153.212C275.592 153.061 275.416 152.943 275.222 152.864C275.029 152.786 274.82 152.749 274.612 152.757C274.389 152.754 274.168 152.796 273.961 152.879C273.772 152.955 273.6 153.068 273.455 153.212C273.313 153.357 273.201 153.53 273.129 153.721C273.05 153.921 273.01 154.134 273.013 154.349V158.143C273.004 158.41 273.055 158.676 273.162 158.921C273.252 159.116 273.381 159.289 273.541 159.43C273.693 159.557 273.871 159.649 274.063 159.699C274.247 159.751 274.438 159.778 274.629 159.778C274.841 159.78 275.05 159.735 275.241 159.646C275.431 159.563 275.603 159.444 275.747 159.295C275.888 159.148 276.001 158.975 276.079 158.786C276.16 158.595 276.201 158.389 276.2 158.181V157.756H275.209V158.095C275.211 158.21 275.192 158.325 275.15 158.433C275.118 158.514 275.069 158.586 275.006 158.646C274.945 158.696 274.874 158.733 274.799 158.756C274.732 158.778 274.662 158.79 274.591 158.791C274.503 158.802 274.413 158.788 274.331 158.753C274.25 158.717 274.179 158.66 274.126 158.588C274.032 158.435 273.987 158.258 273.994 158.079V154.542C273.988 154.346 274.03 154.151 274.116 153.975C274.167 153.895 274.24 153.831 274.326 153.791C274.412 153.75 274.507 153.735 274.601 153.746C274.687 153.743 274.772 153.761 274.849 153.798C274.926 153.835 274.993 153.891 275.044 153.96C275.155 154.106 275.213 154.285 275.209 154.468V154.796H276.19V154.41C276.192 154.183 276.151 153.958 276.069 153.746C275.995 153.548 275.883 153.366 275.737 153.212Z" fill="#AFB1B8"/>
<path d="M281.629 153.169C281.313 152.902 280.914 152.755 280.501 152.752C280.299 152.753 280.098 152.789 279.909 152.859C279.716 152.928 279.538 153.033 279.385 153.169C279.221 153.317 279.09 153.498 279.001 153.701C278.901 153.932 278.851 154.183 278.856 154.436V158.075C278.85 158.33 278.899 158.585 279.001 158.82C279.09 159.015 279.222 159.189 279.385 159.328C279.537 159.469 279.715 159.578 279.909 159.649C280.098 159.718 280.299 159.755 280.501 159.755C280.703 159.755 280.903 159.719 281.093 159.649C281.29 159.577 281.472 159.468 281.629 159.328C281.787 159.186 281.915 159.013 282.003 158.82C282.105 158.585 282.154 158.33 282.148 158.075V154.436C282.152 154.183 282.103 153.932 282.003 153.701C281.915 153.5 281.788 153.32 281.629 153.169ZM281.166 158.075C281.174 158.171 281.161 158.269 281.127 158.36C281.093 158.451 281.039 158.534 280.969 158.601C280.838 158.711 280.673 158.771 280.502 158.771C280.331 158.771 280.166 158.711 280.035 158.601C279.965 158.534 279.911 158.451 279.877 158.36C279.843 158.269 279.83 158.171 279.838 158.075V154.436C279.83 154.339 279.843 154.241 279.877 154.15C279.911 154.059 279.965 153.977 280.035 153.909C280.166 153.799 280.331 153.739 280.502 153.739C280.673 153.739 280.838 153.799 280.969 153.909C281.039 153.977 281.093 154.059 281.127 154.15C281.161 154.241 281.174 154.339 281.166 154.436V158.075Z" fill="#AFB1B8"/>
<path d="M289.367 159.699V152.811H288.414L287.161 156.457H287.144L285.881 152.811H284.938V159.699H285.922V155.509H285.94L286.903 158.471H287.394L288.366 155.509H288.383V159.699H289.367Z" fill="#AFB1B8"/>
<path d="M294.958 153.294C294.806 153.124 294.615 152.994 294.401 152.917C294.171 152.843 293.93 152.806 293.688 152.811H292.226V159.699H293.207V157.009H293.713C294.02 157.023 294.324 156.958 294.599 156.821C294.822 156.697 295.008 156.515 295.138 156.294C295.251 156.111 295.328 155.907 295.363 155.694C295.401 155.435 295.419 155.173 295.416 154.911C295.425 154.58 295.393 154.25 295.32 153.927C295.254 153.689 295.13 153.471 294.958 153.294ZM294.452 155.394C294.448 155.519 294.417 155.641 294.361 155.753C294.305 155.859 294.216 155.943 294.108 155.994C293.963 156.059 293.804 156.089 293.645 156.081H293.197V153.739H293.703C293.856 153.731 294.007 153.761 294.146 153.825C294.247 153.883 294.328 153.973 294.376 154.08C294.43 154.201 294.459 154.331 294.462 154.464C294.462 154.608 294.462 154.761 294.462 154.921C294.462 155.081 294.472 155.247 294.462 155.394H294.452Z" fill="#AFB1B8"/>
<path d="M299.608 152.811H298.803L297.285 159.699H298.267L298.555 158.219H299.894L300.182 159.699H301.163L299.608 152.811ZM298.702 157.281L299.185 154.784H299.203L299.684 157.281H298.702Z" fill="#AFB1B8"/>
<path d="M305.95 156.961H305.932L304.449 152.811H303.506V159.699H304.487V155.557H304.508L306.008 159.699H306.931V152.811H305.95V156.961Z" fill="#AFB1B8"/>
<path d="M311.948 152.811L311.158 155.549H311.138L310.349 152.811H309.309L310.657 156.788V159.699H311.639V156.788L312.987 152.811H311.948Z" fill="#AFB1B8"/>
<path d="M273 161.645H273.473V162.972H273.794V161.645H274.265V161.373H273V161.645Z" fill="#AFB1B8"/>
<path d="M276.977 161.373L276.357 162.972H276.698L276.83 162.608H277.467L277.604 162.972H277.953L277.318 161.373H276.977ZM276.926 162.339L277.144 161.746L277.361 162.339H276.926Z" fill="#AFB1B8"/>
<path d="M280.908 162.382H281.277V162.588C281.169 162.675 281.036 162.722 280.898 162.723C280.833 162.726 280.769 162.715 280.71 162.688C280.651 162.661 280.599 162.621 280.559 162.57C280.474 162.449 280.432 162.302 280.44 162.153C280.44 161.797 280.594 161.619 280.9 161.619C280.981 161.611 281.062 161.632 281.128 161.679C281.194 161.726 281.242 161.795 281.262 161.874L281.578 161.813C281.51 161.5 281.285 161.342 280.9 161.342C280.695 161.337 280.495 161.41 280.341 161.548C280.261 161.628 280.198 161.724 280.159 161.83C280.119 161.936 280.103 162.05 280.111 162.163C280.102 162.382 280.175 162.597 280.316 162.764C280.394 162.844 280.489 162.907 280.594 162.947C280.699 162.988 280.811 163.005 280.923 162.998C281.173 163.004 281.417 162.913 281.601 162.743V162.113H280.908V162.382Z" fill="#AFB1B8"/>
<path d="M284.923 161.373H284.599V162.972H285.72V162.7H284.923V161.373Z" fill="#AFB1B8"/>
<path d="M288.317 161.373H287.994V162.972H288.317V161.373Z" fill="#AFB1B8"/>
<path d="M291.636 162.441L290.981 161.373H290.667V162.972H290.969V161.927L291.611 162.972H291.932V161.373H291.636V162.441Z" fill="#AFB1B8"/>
<path d="M294.637 162.268H295.434V161.996H294.637V161.645H295.494V161.373H294.313V162.972H295.527V162.7H294.637V162.268Z" fill="#AFB1B8"/>
<path d="M301.912 162.003H301.282V161.373H300.961V162.972H301.282V162.273H301.912V162.972H302.233V161.373H301.912V162.003Z" fill="#AFB1B8"/>
<path d="M304.93 162.268H305.73V161.996H304.93V161.645H305.79V161.373H304.609V162.972H305.821V162.7H304.93V162.268Z" fill="#AFB1B8"/>
<path d="M309.023 162.268C309.302 162.224 309.443 162.077 309.443 161.823C309.451 161.755 309.441 161.686 309.413 161.623C309.386 161.56 309.342 161.506 309.286 161.467C309.141 161.394 308.98 161.361 308.818 161.373H308.14V162.972H308.462V162.303H308.525C308.593 162.299 308.662 162.311 308.725 162.339C308.772 162.368 308.811 162.408 308.839 162.456L309.188 162.964H309.572L309.377 162.652C309.291 162.497 309.17 162.366 309.023 162.268ZM308.699 162.046H308.462V161.645H308.715C308.825 161.636 308.936 161.649 309.041 161.683C309.064 161.703 309.083 161.729 309.095 161.758C309.107 161.787 309.113 161.818 309.111 161.849C309.11 161.88 309.101 161.911 309.087 161.938C309.072 161.966 309.051 161.99 309.026 162.008C308.92 162.041 308.81 162.054 308.699 162.046Z" fill="#AFB1B8"/>
<path d="M312.109 162.268H312.906V161.996H312.109V161.645H312.97V161.373H311.786V162.972H313V162.7H312.109V162.268Z" fill="#AFB1B8"/>
<rect x="410.5" y="92.5" width="174" height="89" rx="3.5" stroke="#AFB1B8"/>
<path d="M479.345 156.493C479.36 156.493 479.375 156.496 479.389 156.502C479.403 156.508 479.415 156.516 479.425 156.526L479.631 156.735C479.471 156.904 479.274 157.039 479.052 157.131C478.793 157.232 478.513 157.28 478.232 157.274C477.967 157.279 477.705 157.234 477.46 157.141C477.239 157.056 477.041 156.928 476.879 156.766C476.713 156.598 476.585 156.401 476.503 156.186C476.413 155.947 476.369 155.696 476.372 155.443C476.368 155.189 476.416 154.936 476.513 154.698C476.603 154.482 476.739 154.285 476.912 154.118C477.088 153.955 477.298 153.826 477.529 153.741C477.783 153.65 478.053 153.605 478.324 153.608C478.577 153.602 478.828 153.643 479.062 153.729C479.266 153.81 479.453 153.924 479.615 154.064L479.443 154.287C479.431 154.302 479.416 154.316 479.399 154.327C479.379 154.34 479.355 154.346 479.33 154.344C479.303 154.342 479.278 154.334 479.255 154.32L479.163 154.261L479.034 154.185C478.979 154.156 478.921 154.132 478.862 154.111C478.786 154.086 478.707 154.066 478.628 154.052C478.527 154.035 478.424 154.027 478.322 154.028C478.126 154.026 477.932 154.06 477.751 154.128C477.582 154.191 477.429 154.286 477.303 154.408C477.175 154.537 477.076 154.689 477.012 154.854C476.94 155.043 476.904 155.243 476.907 155.443C476.904 155.647 476.94 155.849 477.012 156.041C477.075 156.205 477.172 156.356 477.298 156.486C477.416 156.606 477.562 156.7 477.725 156.761C477.893 156.825 478.073 156.857 478.255 156.856C478.36 156.857 478.465 156.851 478.569 156.837C478.738 156.818 478.901 156.763 479.044 156.678C479.116 156.634 479.184 156.585 479.248 156.531C479.274 156.507 479.309 156.494 479.345 156.493Z" fill="#AFB1B8"/>
<path d="M485.287 155.443C485.29 155.695 485.243 155.945 485.148 156.181C485.064 156.395 484.932 156.591 484.761 156.755C484.589 156.918 484.382 157.047 484.153 157.131C483.649 157.308 483.093 157.308 482.589 157.131C482.361 157.045 482.155 156.917 481.985 156.753C481.813 156.587 481.68 156.39 481.594 156.174C481.408 155.696 481.408 155.173 481.594 154.695C481.681 154.479 481.814 154.282 481.985 154.113C482.157 153.955 482.363 153.831 482.589 153.75C483.092 153.569 483.65 153.569 484.153 153.75C484.381 153.836 484.588 153.964 484.76 154.127C484.929 154.292 485.061 154.487 485.148 154.7C485.244 154.937 485.291 155.189 485.287 155.443ZM484.747 155.443C484.751 155.241 484.718 155.041 484.649 154.849C484.592 154.685 484.498 154.534 484.374 154.405C484.253 154.283 484.105 154.187 483.939 154.125C483.573 153.995 483.168 153.995 482.802 154.125C482.637 154.187 482.488 154.283 482.368 154.405C482.242 154.533 482.147 154.685 482.09 154.849C481.959 155.236 481.959 155.65 482.09 156.036C482.148 156.201 482.243 156.352 482.368 156.48C482.489 156.602 482.637 156.697 482.802 156.758C483.169 156.885 483.573 156.885 483.939 156.758C484.105 156.697 484.253 156.602 484.374 156.48C484.497 156.351 484.591 156.2 484.649 156.036C484.718 155.845 484.751 155.644 484.747 155.443Z" fill="#AFB1B8"/>
<path d="M489.341 156.065L489.395 156.198C489.415 156.151 489.433 156.108 489.454 156.065C489.474 156.02 489.496 155.977 489.521 155.935L490.835 153.729C490.861 153.691 490.884 153.667 490.91 153.66C490.945 153.65 490.981 153.646 491.018 153.648H491.406V157.236H490.946V154.598C490.946 154.565 490.946 154.527 490.946 154.486C490.943 154.445 490.943 154.404 490.946 154.363L489.624 156.599C489.607 156.633 489.58 156.661 489.546 156.681C489.513 156.701 489.473 156.711 489.433 156.711H489.359C489.319 156.711 489.279 156.701 489.246 156.681C489.212 156.661 489.185 156.633 489.168 156.599L487.808 154.349C487.808 154.391 487.808 154.434 487.808 154.477C487.808 154.52 487.808 154.558 487.808 154.591V157.228H487.363V153.648H487.751C487.788 153.646 487.824 153.65 487.859 153.66C487.891 153.675 487.917 153.699 487.931 153.729L489.274 155.937C489.3 155.978 489.323 156.021 489.341 156.065Z" fill="#AFB1B8"/>
<path d="M494.287 155.887V157.231H493.773V153.648H494.92C495.136 153.644 495.352 153.671 495.56 153.727C495.727 153.77 495.881 153.846 496.013 153.95C496.127 154.047 496.215 154.167 496.27 154.301C496.331 154.447 496.361 154.603 496.358 154.759C496.36 154.916 496.328 155.072 496.263 155.218C496.201 155.355 496.106 155.478 495.985 155.576C495.853 155.684 495.698 155.765 495.529 155.813C495.329 155.872 495.12 155.901 494.91 155.897L494.287 155.887ZM494.287 155.502H494.91C495.045 155.504 495.179 155.486 495.308 155.448C495.415 155.415 495.513 155.362 495.596 155.294C495.674 155.228 495.733 155.147 495.771 155.056C495.813 154.96 495.834 154.858 495.833 154.755C495.839 154.655 495.821 154.555 495.781 154.463C495.741 154.37 495.68 154.287 495.602 154.218C495.405 154.076 495.158 154.008 494.91 154.026H494.287V155.502Z" fill="#AFB1B8"/>
<path d="M501.201 157.235H500.795C500.754 157.237 500.714 157.225 500.681 157.202C500.652 157.18 500.629 157.151 500.615 157.119L500.265 156.253H498.508L498.145 157.119C498.132 157.151 498.11 157.179 498.081 157.2C498.048 157.224 498.007 157.237 497.965 157.235H497.559L499.102 153.648H499.637L501.201 157.235ZM498.655 155.904H500.105L499.493 154.443C499.446 154.333 499.408 154.221 499.377 154.106L499.318 154.294C499.3 154.351 499.28 154.403 499.262 154.446L498.655 155.904Z" fill="#AFB1B8"/>
<path d="M503.423 153.665C503.454 153.68 503.481 153.702 503.501 153.729L505.751 156.433C505.751 156.39 505.751 156.348 505.751 156.307C505.751 156.267 505.751 156.226 505.751 156.188V153.648H506.212V157.236H505.954C505.918 157.237 505.882 157.229 505.849 157.214C505.817 157.197 505.789 157.174 505.767 157.148L503.519 154.446C503.521 154.487 503.521 154.528 503.519 154.569C503.519 154.61 503.519 154.645 503.519 154.678V157.236H503.058V153.648H503.331C503.363 153.647 503.394 153.653 503.423 153.665Z" fill="#AFB1B8"/>
<path d="M510.003 155.809V157.233H509.488V155.809L508.066 153.648H508.526C508.566 153.646 508.605 153.657 508.637 153.679C508.665 153.702 508.688 153.729 508.706 153.759L509.596 155.153C509.632 155.213 509.663 155.267 509.689 155.319C509.715 155.372 509.735 155.422 509.753 155.471L509.82 155.317C509.845 155.261 509.874 155.206 509.908 155.153L510.785 153.75C510.803 153.722 510.826 153.696 510.852 153.674C510.882 153.649 510.922 153.637 510.962 153.638H511.428L510.003 155.809Z" fill="#AFB1B8"/>
<path d="M489.086 147.627C489.31 147.653 489.536 147.675 489.765 147.694C493.236 146.261 496.172 143.915 498.206 140.95C500.241 137.986 501.283 134.533 501.204 131.024L497.379 127.494C498.156 131.229 497.793 135.091 496.328 138.647C494.864 142.203 492.356 145.312 489.086 147.627Z" fill="#AFB1B8"/>
<path d="M487.72 147.463L487.823 147.482C491.318 145.175 493.982 141.953 495.471 138.234C496.96 134.514 497.207 130.468 496.178 126.618L490.73 121.589C492.933 125.722 493.82 130.348 493.288 134.929C492.755 139.509 490.824 143.856 487.72 147.463Z" fill="#AFB1B8"/>
<path d="M506.196 135.17C505.271 139.025 503.023 142.502 499.786 145.084C498.841 145.843 497.822 146.518 496.741 147.103C499.376 146.388 501.799 145.123 503.821 143.408C505.843 141.692 507.412 139.571 508.406 137.207L506.196 135.17Z" fill="#AFB1B8"/>
<path d="M505.329 134.602L502.183 131.698C502.123 135.009 501.104 138.244 499.231 141.068C497.358 143.892 494.699 146.201 491.532 147.755H491.548C492.253 147.755 492.959 147.716 493.659 147.639C496.619 146.524 499.234 144.75 501.27 142.475C503.306 140.2 504.701 137.495 505.329 134.602Z" fill="#AFB1B8"/>
<path d="M488.176 119.469L484.423 116C481.068 117.197 478.183 119.3 476.145 122.036C474.106 124.771 473.01 128.011 473 131.33V131.33C473.013 134.999 474.35 138.558 476.801 141.446C479.252 144.334 482.676 146.384 486.532 147.273C489.974 143.403 491.989 138.62 492.285 133.619C492.58 128.619 491.141 123.662 488.176 119.469Z" fill="#AFB1B8"/>
<path d="M514 134.068C513.986 129.715 512.107 125.545 508.773 122.467C505.439 119.39 500.921 117.655 496.206 117.643C494.027 117.641 491.867 118.012 489.835 118.737L512.812 139.946C513.598 138.072 514.001 136.078 514 134.068Z" fill="#AFB1B8"/>
<rect x="615.5" y="92.5" width="174" height="89" rx="3.5" stroke="#2196F3"/>
<path d="M674.767 129.431H674.764C672.435 129.431 670.547 131.162 670.547 133.298V133.301C670.547 135.437 672.435 137.168 674.764 137.168H674.767C677.096 137.168 678.984 135.437 678.984 133.301V133.298C678.984 131.162 677.096 129.431 674.767 129.431Z" fill="#2196F3"/>
<path d="M705.891 128.195C705.884 125.228 704.597 122.384 702.31 120.286C700.023 118.188 696.923 117.007 693.688 117V117C690.453 117.005 687.351 118.186 685.063 120.285C682.775 122.383 681.487 125.227 681.48 128.195V144.554C681.48 144.554 705.888 142.061 705.891 128.197V128.195Z" fill="#2196F3"/>
<path d="M662 149.924C662.006 151.988 662.902 153.966 664.494 155.426C666.085 156.886 668.241 157.709 670.492 157.715C672.742 157.709 674.898 156.887 676.489 155.427C678.08 153.968 678.977 151.99 678.984 149.927V138.543C678.984 138.543 662 140.279 662 149.924ZM670.492 151.964C670.052 151.964 669.622 151.844 669.256 151.62C668.891 151.396 668.606 151.077 668.437 150.704C668.269 150.332 668.225 149.922 668.311 149.526C668.397 149.13 668.608 148.767 668.919 148.482C669.23 148.197 669.627 148.002 670.058 147.924C670.489 147.845 670.937 147.885 671.343 148.04C671.749 148.194 672.096 148.455 672.341 148.791C672.585 149.126 672.716 149.521 672.716 149.924C672.717 150.192 672.66 150.458 672.549 150.707C672.437 150.955 672.274 151.181 672.067 151.371C671.861 151.561 671.615 151.712 671.345 151.815C671.074 151.918 670.785 151.971 670.492 151.971V151.964Z" fill="#2196F3"/>
<path d="M687.74 150.831H686.053V152.574H685.174V148.308H687.951V149.02H686.053V150.122H687.74V150.831ZM691.965 150.538C691.965 150.958 691.891 151.326 691.742 151.642C691.594 151.958 691.381 152.203 691.104 152.375C690.828 152.546 690.512 152.632 690.155 152.632C689.801 152.632 689.486 152.547 689.208 152.377C688.931 152.208 688.716 151.965 688.564 151.651C688.411 151.334 688.334 150.971 688.332 150.561V150.35C688.332 149.93 688.407 149.561 688.558 149.243C688.71 148.922 688.924 148.677 689.199 148.507C689.477 148.335 689.793 148.25 690.149 148.25C690.504 148.25 690.82 148.335 691.095 148.507C691.372 148.677 691.586 148.922 691.737 149.243C691.889 149.561 691.965 149.929 691.965 150.347V150.538ZM691.074 150.344C691.074 149.897 690.994 149.557 690.834 149.325C690.674 149.092 690.446 148.976 690.149 148.976C689.854 148.976 689.626 149.091 689.466 149.322C689.306 149.55 689.225 149.886 689.223 150.33V150.538C689.223 150.973 689.303 151.311 689.463 151.551C689.623 151.792 689.854 151.912 690.155 151.912C690.449 151.912 690.676 151.796 690.834 151.566C690.992 151.333 691.073 150.996 691.074 150.552V150.344ZM694.816 151.455C694.816 151.289 694.757 151.162 694.64 151.074C694.523 150.984 694.312 150.89 694.007 150.792C693.702 150.693 693.461 150.595 693.283 150.5C692.799 150.238 692.557 149.885 692.557 149.442C692.557 149.211 692.621 149.006 692.75 148.827C692.881 148.645 693.068 148.503 693.31 148.402C693.554 148.3 693.827 148.25 694.13 148.25C694.435 148.25 694.706 148.305 694.945 148.417C695.183 148.526 695.367 148.681 695.498 148.882C695.631 149.083 695.698 149.312 695.698 149.568H694.819C694.819 149.373 694.757 149.221 694.634 149.114C694.511 149.004 694.338 148.95 694.115 148.95C693.901 148.95 693.734 148.996 693.615 149.087C693.495 149.177 693.436 149.296 693.436 149.445C693.436 149.583 693.505 149.7 693.644 149.793C693.784 149.887 693.99 149.975 694.262 150.057C694.762 150.208 695.126 150.394 695.355 150.617C695.583 150.839 695.698 151.117 695.698 151.449C695.698 151.818 695.558 152.108 695.279 152.319C694.999 152.528 694.623 152.632 694.151 152.632C693.823 152.632 693.524 152.573 693.254 152.454C692.985 152.333 692.779 152.167 692.636 151.958C692.495 151.75 692.425 151.507 692.425 151.232H693.307C693.307 151.703 693.588 151.938 694.151 151.938C694.36 151.938 694.523 151.896 694.64 151.812C694.757 151.726 694.816 151.607 694.816 151.455ZM699.506 149.02H698.199V152.574H697.321V149.02H696.031V148.308H699.506V149.02ZM702.576 150.725H700.889V151.868H702.869V152.574H700.01V148.308H702.864V149.02H700.889V150.037H702.576V150.725ZM704.964 151.012H704.264V152.574H703.385V148.308H704.97C705.474 148.308 705.863 148.42 706.136 148.645C706.409 148.87 706.546 149.187 706.546 149.597C706.546 149.888 706.483 150.131 706.356 150.327C706.231 150.52 706.04 150.674 705.784 150.79L706.707 152.533V152.574H705.764L704.964 151.012ZM704.264 150.3H704.973C705.194 150.3 705.365 150.245 705.486 150.133C705.607 150.02 705.667 149.865 705.667 149.667C705.667 149.466 705.61 149.308 705.494 149.193C705.381 149.078 705.206 149.02 704.97 149.02H704.264V150.3ZM709.59 151.071V152.574H708.711V148.308H710.375C710.696 148.308 710.977 148.367 711.219 148.484C711.463 148.601 711.651 148.768 711.781 148.985C711.912 149.2 711.978 149.445 711.978 149.72C711.978 150.138 711.834 150.468 711.547 150.71C711.262 150.951 710.866 151.071 710.361 151.071H709.59ZM709.59 150.359H710.375C710.608 150.359 710.784 150.304 710.906 150.195C711.029 150.085 711.09 149.929 711.09 149.726C711.09 149.517 711.029 149.348 710.906 149.219C710.782 149.09 710.613 149.024 710.396 149.02H709.59V150.359ZM715.151 150.725H713.463V151.868H715.444V152.574H712.584V148.308H715.438V149.02H713.463V150.037H715.151V150.725ZM719.229 149.02H717.922V152.574H717.043V149.02H715.754V148.308H719.229V149.02ZM722.299 150.725H720.612V151.868H722.592V152.574H719.733V148.308H722.586V149.02H720.612V150.037H722.299V150.725ZM724.687 151.012H723.987V152.574H723.108V148.308H724.693C725.197 148.308 725.585 148.42 725.859 148.645C726.132 148.87 726.269 149.187 726.269 149.597C726.269 149.888 726.205 150.131 726.078 150.327C725.953 150.52 725.763 150.674 725.507 150.79L726.43 152.533V152.574H725.487L724.687 151.012ZM723.987 150.3H724.696C724.916 150.3 725.087 150.245 725.208 150.133C725.329 150.02 725.39 149.865 725.39 149.667C725.39 149.466 725.332 149.308 725.217 149.193C725.104 149.078 724.929 149.02 724.693 149.02H723.987V150.3ZM729.152 151.455C729.152 151.289 729.093 151.162 728.976 151.074C728.859 150.984 728.648 150.89 728.343 150.792C728.038 150.693 727.797 150.595 727.619 150.5C727.135 150.238 726.893 149.885 726.893 149.442C726.893 149.211 726.957 149.006 727.086 148.827C727.217 148.645 727.404 148.503 727.646 148.402C727.89 148.3 728.163 148.25 728.466 148.25C728.771 148.25 729.042 148.305 729.281 148.417C729.519 148.526 729.703 148.681 729.834 148.882C729.967 149.083 730.033 149.312 730.033 149.568H729.155C729.155 149.373 729.093 149.221 728.97 149.114C728.847 149.004 728.674 148.95 728.451 148.95C728.237 148.95 728.07 148.996 727.95 149.087C727.831 149.177 727.772 149.296 727.772 149.445C727.772 149.583 727.841 149.7 727.98 149.793C728.12 149.887 728.326 149.975 728.598 150.057C729.098 150.208 729.462 150.394 729.691 150.617C729.919 150.839 730.033 151.117 730.033 151.449C730.033 151.818 729.894 152.108 729.615 152.319C729.335 152.528 728.959 152.632 728.487 152.632C728.158 152.632 727.86 152.573 727.59 152.454C727.321 152.333 727.115 152.167 726.972 151.958C726.831 151.75 726.761 151.507 726.761 151.232H727.643C727.643 151.703 727.924 151.938 728.487 151.938C728.696 151.938 728.859 151.896 728.976 151.812C729.093 151.726 729.152 151.607 729.152 151.455Z" fill="#2196F3"/>
<rect x="820.5" y="92.5" width="174" height="89" rx="3.5" stroke="#AFB1B8"/>
<path d="M882.488 153.278C882.718 153.563 882.84 153.921 882.834 154.288C882.845 154.528 882.803 154.767 882.71 154.988C882.618 155.209 882.477 155.406 882.298 155.565C881.851 155.904 881.298 156.069 880.739 156.031H878V149.626H880.683C881.213 149.591 881.738 149.741 882.17 150.052C882.343 150.197 882.48 150.381 882.571 150.589C882.661 150.797 882.702 151.024 882.69 151.25C882.706 151.603 882.595 151.951 882.379 152.229C882.17 152.484 881.883 152.66 881.562 152.73C881.925 152.797 882.254 152.991 882.488 153.278ZM879.275 152.311H880.421C880.682 152.33 880.941 152.255 881.151 152.098C881.237 152.02 881.304 151.922 881.346 151.814C881.389 151.705 881.406 151.589 881.397 151.472C881.405 151.356 881.387 151.24 881.345 151.132C881.303 151.024 881.238 150.926 881.154 150.846C880.938 150.685 880.671 150.609 880.403 150.631H879.275V152.311ZM881.263 154.767C881.355 154.687 881.427 154.586 881.474 154.473C881.521 154.361 881.542 154.238 881.534 154.116C881.541 153.993 881.52 153.869 881.472 153.755C881.423 153.641 881.35 153.54 881.257 153.459C881.032 153.292 880.756 153.21 880.478 153.228H879.275V154.989H880.493C880.767 155.005 881.039 154.927 881.263 154.767Z" fill="#AFB1B8"/>
<path d="M887.972 156.031L886.48 153.528H885.919V156.031H884.635V149.626H887.066C887.678 149.583 888.284 149.778 888.758 150.171C889.098 150.518 889.303 150.976 889.336 151.462C889.369 151.948 889.228 152.43 888.939 152.821C888.639 153.166 888.229 153.396 887.779 153.472L889.369 156.031H887.972ZM885.919 152.655H886.969C887.698 152.655 888.063 152.332 888.063 151.685C888.07 151.553 888.05 151.421 888.004 151.297C887.958 151.173 887.887 151.06 887.795 150.965C887.564 150.773 887.268 150.68 886.969 150.706H885.906L885.919 152.655Z" fill="#AFB1B8"/>
<path d="M894.991 154.742H892.432L891.98 156.031H890.634L892.984 149.698H894.439L896.78 156.031H895.433L894.991 154.742ZM894.648 153.772L893.713 151.069L892.778 153.772H894.648Z" fill="#AFB1B8"/>
<path d="M903.776 156.031H902.501L899.644 151.676V156.031H898.372V149.626H899.644L902.501 154.007V149.626H903.776V156.031Z" fill="#AFB1B8"/>
<path d="M911.05 154.498C910.786 154.982 910.385 155.375 909.897 155.628C909.342 155.909 908.726 156.048 908.105 156.031H905.836V149.626H908.105C908.725 149.61 909.34 149.745 909.897 150.021C910.385 150.267 910.787 150.657 911.05 151.138C911.312 151.659 911.449 152.234 911.449 152.818C911.449 153.402 911.312 153.977 911.05 154.498ZM909.591 154.345C909.955 153.919 910.155 153.377 910.155 152.816C910.155 152.256 909.955 151.713 909.591 151.288C909.152 150.902 908.578 150.707 907.996 150.743H907.111V154.889H907.996C908.578 154.926 909.152 154.73 909.591 154.345Z" fill="#AFB1B8"/>
<path d="M895.789 114C895.789 114 912.24 120.236 911.891 129.26V144.523C911.891 144.523 895.452 138.284 895.795 129.26L895.789 114Z" fill="#AFB1B8"/>
<path d="M926.548 140.95C929.655 138.803 933.249 137.473 937 137.082V132.304C932.677 133.977 929.01 137.01 926.548 140.95Z" fill="#AFB1B8"/>
<path d="M924.681 142.389C927.224 137.248 931.633 133.28 937 131.303V117.536C937 117.536 913.571 126.419 914.066 139.269V161C914.066 161 915.11 160.603 916.753 159.858C916.753 159.163 916.753 158.462 916.827 157.758C917.312 151.792 920.137 146.264 924.681 142.389Z" fill="#AFB1B8"/>
<path d="M922.453 150.462C922.576 148.955 922.85 147.464 923.272 146.012C920.443 149.359 918.73 153.512 918.373 157.887C918.339 158.3 918.32 158.713 918.311 159.138C919.642 158.497 921.19 157.696 922.817 156.754C922.402 154.684 922.279 152.566 922.453 150.462Z" fill="#AFB1B8"/>
<path d="M923.384 150.54C923.228 152.444 923.326 154.36 923.674 156.238C930.075 152.392 937.268 146.45 936.991 139.269V138.644C932.417 139.157 928.138 141.165 924.812 144.357C924.033 146.335 923.552 148.419 923.384 150.54Z" fill="#AFB1B8"/>
<rect x="878" y="114" width="59" height="47" stroke="#AFB1B8"/>
<rect x="1025.5" y="92.5" width="174" height="89" rx="3.5" stroke="#AFB1B8"/>
<path d="M1112.74 135.689C1112.32 135.097 1112.12 134.399 1112.17 133.695V130.806C1112.17 129.92 1112.36 129.247 1112.74 128.786C1113.12 128.325 1113.76 128.096 1114.69 128.098C1115.55 128.098 1116.17 128.294 1116.53 128.686C1116.92 129.186 1117.12 129.798 1117.07 130.415V131.094H1115.53V130.406C1115.53 130.181 1115.52 129.956 1115.48 129.733C1115.46 129.58 1115.38 129.439 1115.26 129.333C1115.1 129.218 1114.9 129.162 1114.7 129.177C1114.49 129.163 1114.28 129.221 1114.11 129.342C1113.97 129.46 1113.88 129.614 1113.85 129.783C1113.81 130.018 1113.79 130.258 1113.79 130.497V134.004C1113.77 134.342 1113.84 134.681 1113.99 134.989C1114.07 135.093 1114.17 135.176 1114.3 135.228C1114.42 135.279 1114.56 135.299 1114.7 135.283C1114.9 135.298 1115.09 135.241 1115.25 135.124C1115.37 135.009 1115.45 134.859 1115.48 134.698C1115.51 134.465 1115.53 134.23 1115.53 133.995V133.284H1117.07V133.933C1117.12 134.577 1116.93 135.215 1116.54 135.75C1116.18 136.179 1115.58 136.394 1114.69 136.394C1113.79 136.394 1113.12 136.165 1112.74 135.689Z" fill="#AFB1B8"/>
<path d="M1119.19 135.718C1118.79 135.268 1118.6 134.613 1118.6 133.745V130.706C1118.6 129.847 1118.79 129.198 1119.19 128.757C1119.58 128.316 1120.23 128.096 1121.15 128.098C1122.06 128.098 1122.71 128.318 1123.1 128.757C1123.49 129.198 1123.69 129.847 1123.69 130.706V133.745C1123.69 134.604 1123.49 135.262 1123.09 135.715C1122.69 136.168 1122.05 136.394 1121.15 136.394C1120.25 136.394 1119.58 136.165 1119.19 135.718ZM1121.87 134.989C1122.01 134.707 1122.07 134.399 1122.05 134.089V130.368C1122.07 130.064 1122.01 129.762 1121.87 129.486C1121.79 129.379 1121.68 129.295 1121.56 129.243C1121.43 129.191 1121.29 129.173 1121.15 129.192C1121.01 129.174 1120.87 129.192 1120.74 129.244C1120.61 129.296 1120.5 129.38 1120.42 129.486C1120.28 129.761 1120.21 130.064 1120.23 130.368V134.107C1120.21 134.416 1120.28 134.725 1120.42 135.006C1120.51 135.101 1120.62 135.177 1120.75 135.229C1120.87 135.281 1121.01 135.308 1121.14 135.308C1121.28 135.308 1121.42 135.281 1121.54 135.229C1121.67 135.177 1121.78 135.101 1121.87 135.006V134.989Z" fill="#AFB1B8"/>
<path d="M1125.55 128.187H1127.22L1128.47 133.795L1129.75 128.187H1131.37L1131.54 136.282H1130.34L1130.21 130.656L1128.97 136.282H1128.01L1126.73 130.635L1126.61 136.282H1125.4L1125.55 128.187Z" fill="#AFB1B8"/>
<path d="M1133.41 128.187H1136C1137.5 128.187 1138.25 128.953 1138.25 130.485C1138.25 131.953 1137.46 132.686 1135.88 132.684H1135V136.282H1133.4L1133.41 128.187ZM1135.62 131.646C1135.78 131.665 1135.94 131.651 1136.1 131.607C1136.25 131.563 1136.39 131.489 1136.51 131.391C1136.69 131.117 1136.77 130.796 1136.74 130.477C1136.74 130.23 1136.72 129.983 1136.66 129.742C1136.64 129.661 1136.6 129.586 1136.54 129.52C1136.49 129.453 1136.42 129.398 1136.34 129.357C1136.12 129.259 1135.87 129.214 1135.62 129.227H1135V131.646H1135.62Z" fill="#AFB1B8"/>
<path d="M1140.56 128.187H1142.28L1144.04 136.282H1142.55L1142.2 134.415H1140.66L1140.31 136.282H1138.79L1140.56 128.187ZM1142.03 133.478L1141.43 130.08L1140.83 133.478H1142.03Z" fill="#AFB1B8"/>
<path d="M1145.47 128.187H1146.59L1148.74 132.804V128.187H1150.07V136.282H1149L1146.84 131.461V136.282H1145.47L1145.47 128.187Z" fill="#AFB1B8"/>
<path d="M1153.18 133.195L1151.4 128.198H1152.9L1153.99 131.408L1155.01 128.198H1156.48L1154.72 133.195V136.282H1153.18V133.195Z" fill="#AFB1B8"/>
<path d="M1115.21 139.821V140.245H1113.91V143.534H1113.36V140.245H1112.04V139.821H1115.21Z" fill="#AFB1B8"/>
<path d="M1119.31 143.534H1118.89C1118.85 143.537 1118.81 143.524 1118.77 143.499C1118.74 143.477 1118.72 143.448 1118.7 143.414L1118.32 142.532H1116.51L1116.13 143.414C1116.12 143.451 1116.1 143.485 1116.07 143.514C1116.04 143.538 1116 143.551 1115.96 143.549H1115.53L1117.13 139.836H1117.69L1119.31 143.534ZM1116.66 142.156H1118.17L1117.53 140.645C1117.48 140.53 1117.45 140.413 1117.41 140.295C1117.39 140.365 1117.37 140.433 1117.35 140.492L1117.29 140.648L1116.66 142.156Z" fill="#AFB1B8"/>
<path d="M1122.08 143.169C1122.18 143.174 1122.28 143.174 1122.38 143.169C1122.46 143.161 1122.55 143.146 1122.63 143.125C1122.71 143.108 1122.79 143.085 1122.87 143.058C1122.94 143.031 1123.01 142.999 1123.08 142.967V142.132H1122.44C1122.42 142.133 1122.41 142.13 1122.39 142.125C1122.38 142.12 1122.36 142.112 1122.35 142.102C1122.34 142.094 1122.33 142.084 1122.33 142.072C1122.32 142.06 1122.32 142.047 1122.32 142.035V141.75H1123.56V143.172C1123.46 143.239 1123.36 143.298 1123.24 143.349C1123.13 143.4 1123.01 143.443 1122.89 143.475C1122.76 143.511 1122.62 143.536 1122.49 143.552C1122.33 143.567 1122.18 143.575 1122.02 143.575C1121.74 143.577 1121.47 143.53 1121.21 143.437C1120.97 143.348 1120.75 143.216 1120.57 143.049C1120.39 142.88 1120.25 142.68 1120.16 142.461C1120.06 142.215 1120.01 141.954 1120.01 141.691C1120.01 141.426 1120.05 141.163 1120.15 140.915C1120.25 140.695 1120.39 140.494 1120.57 140.327C1120.75 140.16 1120.97 140.029 1121.21 139.942C1121.48 139.847 1121.77 139.8 1122.07 139.803C1122.22 139.803 1122.37 139.814 1122.51 139.836C1122.64 139.855 1122.77 139.887 1122.89 139.93C1123.01 139.968 1123.11 140.018 1123.21 140.077C1123.31 140.135 1123.41 140.2 1123.49 140.271L1123.34 140.5C1123.33 140.521 1123.31 140.539 1123.29 140.551C1123.27 140.563 1123.24 140.57 1123.21 140.571C1123.18 140.57 1123.14 140.559 1123.12 140.541C1123.07 140.518 1123.02 140.488 1122.96 140.453C1122.89 140.414 1122.82 140.38 1122.74 140.353C1122.65 140.318 1122.55 140.29 1122.45 140.271C1122.31 140.248 1122.18 140.237 1122.04 140.238C1121.83 140.236 1121.62 140.271 1121.42 140.341C1121.24 140.407 1121.08 140.507 1120.95 140.635C1120.82 140.769 1120.72 140.926 1120.65 141.097C1120.51 141.499 1120.51 141.932 1120.65 142.335C1120.72 142.509 1120.83 142.668 1120.97 142.802C1121.11 142.929 1121.27 143.03 1121.44 143.096C1121.65 143.16 1121.86 143.185 1122.08 143.169Z" fill="#AFB1B8"/>
<path d="M1127.19 143.111H1128.94V143.534H1126.65V139.821H1127.2L1127.19 143.111Z" fill="#AFB1B8"/>
<path d="M1130.76 143.534H1130.21V139.821H1130.76V143.534Z" fill="#AFB1B8"/>
<path d="M1132.79 139.839C1132.83 139.856 1132.85 139.879 1132.88 139.906L1135.22 142.705C1135.22 142.661 1135.22 142.617 1135.22 142.573C1135.22 142.532 1135.22 142.49 1135.22 142.452V139.806H1135.7V143.534H1135.42C1135.38 143.537 1135.34 143.53 1135.3 143.513C1135.27 143.495 1135.24 143.471 1135.22 143.443L1132.88 140.647C1132.88 140.691 1132.88 140.732 1132.88 140.774C1132.88 140.815 1132.88 140.853 1132.88 140.888V143.534H1132.42V139.821H1132.7C1132.74 139.821 1132.77 139.827 1132.79 139.839Z" fill="#AFB1B8"/>
<path d="M1139.73 139.821V140.23H1137.79V141.456H1139.36V141.85H1137.79V143.117H1139.73V143.525H1137.23V139.821H1139.73Z" fill="#AFB1B8"/>
<path d="M1082.3 116.893L1106.64 123.231V145.439L1082.3 139.104V116.893ZM1080.74 115V140.183L1108.2 147.335V122.155L1080.74 115Z" fill="#AFB1B8"/>
<path d="M1095.46 159.025L1068 151.867V126.687L1095.46 133.842V159.025Z" fill="#AFB1B8"/>
<path d="M1081.2 116.608L1105.22 122.866L1095 132.237L1070.98 125.976L1081.2 116.608ZM1080.74 115L1068 126.688L1095.46 133.842L1108.2 122.155L1080.74 115Z" fill="#AFB1B8"/>
<path d="M1097 157.608L1108.2 147.338L1097 144.419V157.608Z" fill="#AFB1B8"/>
</svg>
